<svg xmlns="http://www.w3.org/2000/svg" width="7.16in" height="3.8783in" viewBox="0 0 2400 1300">
<defs>
<marker id="arrow" markerWidth="14" markerHeight="14" refX="11" refY="5" orient="auto" markerUnits="strokeWidth"><path d="M 0 0 L 12 5 L 0 10 z" fill="#59636E"/></marker>
<marker id="arrow-green" markerWidth="14" markerHeight="14" refX="11" refY="5" orient="auto" markerUnits="strokeWidth"><path d="M 0 0 L 12 5 L 0 10 z" fill="#477F63"/></marker>
<marker id="arrow-amber" markerWidth="14" markerHeight="14" refX="11" refY="5" orient="auto" markerUnits="strokeWidth"><path d="M 0 0 L 12 5 L 0 10 z" fill="#A96D00"/></marker>
<marker id="arrow-light" markerWidth="14" markerHeight="14" refX="11" refY="5" orient="auto" markerUnits="strokeWidth"><path d="M 0 0 L 12 5 L 0 10 z" fill="#AEB9C5"/></marker>
</defs>
<rect width="2400" height="1300" fill="#FFFFFF"/>
<polyline points="270,230 370,230" fill="none" stroke="#59636E" stroke-width="6" stroke-linejoin="round" stroke-linecap="round"/>
<polyline points="690,230 820,230" fill="none" stroke="#59636E" stroke-width="6" stroke-linejoin="round" stroke-linecap="round"/>
<polyline points="995,290 995,520 1250,520 1250,610" fill="none" stroke="#4779A7" stroke-width="6" stroke-linejoin="round" stroke-linecap="round"/>
<polyline points="270,255 285,255 285,670 310,670" fill="none" stroke="#477F63" stroke-width="6" stroke-linejoin="round" stroke-linecap="round"/>
<polyline points="480,850 480,730" fill="none" stroke="#477F63" stroke-width="6" stroke-linejoin="round" stroke-linecap="round"/>
<polyline points="650,670 730,670" fill="none" stroke="#477F63" stroke-width="6" stroke-linejoin="round" stroke-linecap="round"/>
<polyline points="1030,670 1080,670" fill="none" stroke="#477F63" stroke-width="6" stroke-linejoin="round" stroke-linecap="round"/>
<polyline points="1420,670 1530,670" fill="none" stroke="#477F63" stroke-width="6" stroke-linejoin="round" stroke-linecap="round"/>
<polyline points="1870,670 1980,670" fill="none" stroke="#4779A7" stroke-width="6" stroke-linejoin="round" stroke-linecap="round"/>
<polyline points="880,810 880,930 1080,930" fill="none" stroke="#A96D00" stroke-width="6" stroke-linejoin="round" stroke-linecap="round"/>
<polyline points="1420,930 2130,930 2130,730" fill="none" stroke="#A96D00" stroke-width="6" stroke-linejoin="round" stroke-linecap="round"/>
<polygon points="730,670 880,530 1030,670 880,810" fill="#FFF6E2" stroke="none"/>
<line x1="730" y1="670" x2="880" y2="530" stroke="#A96D00" stroke-width="5" stroke-linecap="round"/>
<line x1="880" y1="530" x2="1030" y2="670" stroke="#A96D00" stroke-width="5" stroke-linecap="round"/>
<line x1="1030" y1="670" x2="880" y2="810" stroke="#A96D00" stroke-width="5" stroke-linecap="round"/>
<line x1="880" y1="810" x2="730" y2="670" stroke="#A96D00" stroke-width="5" stroke-linecap="round"/>
<text x="880.0" y="646.0" text-anchor="middle" dominant-baseline="middle" dy="0.32em" font-family="Arial, Helvetica, sans-serif" font-size="25" font-weight="700" fill="#173B63">Stage confidence</text>
<text x="880.0" y="670.0" text-anchor="middle" dominant-baseline="middle" dy="0.32em" font-family="Arial, Helvetica, sans-serif" font-size="25" font-weight="700" fill="#173B63">&gt;= 0.45</text>
<text x="880.0" y="694.0" text-anchor="middle" dominant-baseline="middle" dy="0.32em" font-family="Arial, Helvetica, sans-serif" font-size="25" font-weight="700" fill="#173B63">margin &gt;= 0.03</text>
<rect x="50" y="175" width="220" height="110" rx="14" fill="#F7F9FB" stroke="#4779A7" stroke-width="3"/>
<text x="160.0" y="230.0" text-anchor="middle" dominant-baseline="middle" dy="0.32em" font-family="Arial, Helvetica, sans-serif" font-size="33" font-weight="700" fill="#173B63">User Query</text>
<rect x="370" y="170" width="320" height="120" rx="14" fill="#EEF4FA" stroke="#4779A7" stroke-width="3"/>
<text x="530.0" y="213.0" text-anchor="middle" dominant-baseline="middle" dy="0.32em" font-family="Arial, Helvetica, sans-serif" font-size="34" font-weight="700" fill="#173B63">G3 Candidate</text>
<text x="530.0" y="247.0" text-anchor="middle" dominant-baseline="middle" dy="0.32em" font-family="Arial, Helvetica, sans-serif" font-size="34" font-weight="700" fill="#173B63">Retrieval</text>
<rect x="820" y="170" width="350" height="120" rx="14" fill="#F7F9FB" stroke="#4779A7" stroke-width="3"/>
<text x="995.0" y="213.0" text-anchor="middle" dominant-baseline="middle" dy="0.32em" font-family="Arial, Helvetica, sans-serif" font-size="34" font-weight="700" fill="#173B63">Baseline Candidate</text>
<text x="995.0" y="247.0" text-anchor="middle" dominant-baseline="middle" dy="0.32em" font-family="Arial, Helvetica, sans-serif" font-size="34" font-weight="700" fill="#173B63">Ranking</text>
<rect x="310" y="610" width="340" height="120" rx="14" fill="#EEF7F1" stroke="#477F63" stroke-width="3"/>
<text x="480.0" y="653.0" text-anchor="middle" dominant-baseline="middle" dy="0.32em" font-family="Arial, Helvetica, sans-serif" font-size="34" font-weight="700" fill="#173B63">Stage Context</text>
<text x="480.0" y="687.0" text-anchor="middle" dominant-baseline="middle" dy="0.32em" font-family="Arial, Helvetica, sans-serif" font-size="34" font-weight="700" fill="#173B63">Estimation</text>
<rect x="310" y="850" width="340" height="120" rx="14" fill="#EEF7F1" stroke="#477F63" stroke-width="3"/>
<text x="480.0" y="893.5" text-anchor="middle" dominant-baseline="middle" dy="0.32em" font-family="Arial, Helvetica, sans-serif" font-size="33" font-weight="700" fill="#173B63">Manual-Derived</text>
<text x="480.0" y="926.5" text-anchor="middle" dominant-baseline="middle" dy="0.32em" font-family="Arial, Helvetica, sans-serif" font-size="33" font-weight="700" fill="#173B63">Context Map</text>
<rect x="1080" y="610" width="340" height="120" rx="14" fill="#EEF7F1" stroke="#477F63" stroke-width="3"/>
<text x="1250.0" y="654.0" text-anchor="middle" dominant-baseline="middle" dy="0.32em" font-family="Arial, Helvetica, sans-serif" font-size="32" font-weight="700" fill="#173B63">G4 Context-Aware</text>
<text x="1250.0" y="686.0" text-anchor="middle" dominant-baseline="middle" dy="0.32em" font-family="Arial, Helvetica, sans-serif" font-size="32" font-weight="700" fill="#173B63">Re-ranking</text>
<rect x="1530" y="610" width="340" height="120" rx="14" fill="#EEF4FA" stroke="#4779A7" stroke-width="3"/>
<text x="1700.0" y="653.5" text-anchor="middle" dominant-baseline="middle" dy="0.32em" font-family="Arial, Helvetica, sans-serif" font-size="33" font-weight="700" fill="#173B63">Text and Image</text>
<text x="1700.0" y="686.5" text-anchor="middle" dominant-baseline="middle" dy="0.32em" font-family="Arial, Helvetica, sans-serif" font-size="33" font-weight="700" fill="#173B63">Score Fusion</text>
<rect x="1980" y="610" width="300" height="120" rx="14" fill="#F7F9FB" stroke="#4779A7" stroke-width="3"/>
<text x="2130.0" y="653.0" text-anchor="middle" dominant-baseline="middle" dy="0.32em" font-family="Arial, Helvetica, sans-serif" font-size="34" font-weight="700" fill="#173B63">Final Top-k</text>
<text x="2130.0" y="687.0" text-anchor="middle" dominant-baseline="middle" dy="0.32em" font-family="Arial, Helvetica, sans-serif" font-size="34" font-weight="700" fill="#173B63">Evidence</text>
<rect x="1080" y="870" width="340" height="120" rx="14" fill="#FFF6E2" stroke="#A96D00" stroke-width="3"/>
<text x="1250.0" y="914.0" text-anchor="middle" dominant-baseline="middle" dy="0.32em" font-family="Arial, Helvetica, sans-serif" font-size="32" font-weight="700" fill="#173B63">Low-Confidence</text>
<text x="1250.0" y="946.0" text-anchor="middle" dominant-baseline="middle" dy="0.32em" font-family="Arial, Helvetica, sans-serif" font-size="32" font-weight="700" fill="#173B63">G3 Fallback</text>
<polygon points="370.0,230.0 350.0,240.0 350.0,220.0" fill="#59636E"/>
<polygon points="820.0,230.0 800.0,240.0 800.0,220.0" fill="#59636E"/>
<polygon points="1250.0,610.0 1240.0,590.0 1260.0,590.0" fill="#4779A7"/>
<polygon points="310.0,670.0 290.0,680.0 290.0,660.0" fill="#477F63"/>
<polygon points="480.0,730.0 490.0,750.0 470.0,750.0" fill="#477F63"/>
<polygon points="730.0,670.0 710.0,680.0 710.0,660.0" fill="#477F63"/>
<polygon points="1080.0,670.0 1060.0,680.0 1060.0,660.0" fill="#477F63"/>
<polygon points="1530.0,670.0 1510.0,680.0 1510.0,660.0" fill="#477F63"/>
<polygon points="1980.0,670.0 1960.0,680.0 1960.0,660.0" fill="#4779A7"/>
<polygon points="1080.0,930.0 1060.0,940.0 1060.0,920.0" fill="#A96D00"/>
<polygon points="2130.0,730.0 2140.0,750.0 2120.0,750.0" fill="#A96D00"/>











<rect x="121" y="33" width="681" height="54" rx="9" fill="#FFFFFF" stroke="#173B63" stroke-width="3"/>
<rect x="55" y="35" width="54" height="50" rx="10" fill="#173B63"/>
<text x="82.0" y="60.0" text-anchor="middle" dominant-baseline="middle" dy="0.32em" font-family="Arial, Helvetica, sans-serif" font-size="29" font-weight="700" fill="#FFFFFF">A</text>
<text x="131" y="61.0" text-anchor="start" dominant-baseline="middle" font-family="Arial, Helvetica, sans-serif" font-size="31" font-weight="700" fill="#173B63">G3 MULTIMODAL CANDIDATE RETRIEVAL</text>
<rect x="121" y="398" width="681" height="54" rx="9" fill="#FFFFFF" stroke="#477F63" stroke-width="3"/>
<rect x="55" y="400" width="54" height="50" rx="10" fill="#477F63"/>
<text x="82.0" y="425.0" text-anchor="middle" dominant-baseline="middle" dy="0.32em" font-family="Arial, Helvetica, sans-serif" font-size="29" font-weight="700" fill="#FFFFFF">B</text>
<text x="131" y="426.0" text-anchor="start" dominant-baseline="middle" font-family="Arial, Helvetica, sans-serif" font-size="31" font-weight="700" fill="#477F63">AUTOMATIC STAGE CONTEXT INFERENCE</text>
<rect x="1146" y="398" width="624" height="54" rx="9" fill="#FFFFFF" stroke="#173B63" stroke-width="3"/>
<rect x="1080" y="400" width="54" height="50" rx="10" fill="#173B63"/>
<text x="1107.0" y="425.0" text-anchor="middle" dominant-baseline="middle" dy="0.32em" font-family="Arial, Helvetica, sans-serif" font-size="29" font-weight="700" fill="#FFFFFF">C</text>
<text x="1156" y="426.0" text-anchor="start" dominant-baseline="middle" font-family="Arial, Helvetica, sans-serif" font-size="31" font-weight="700" fill="#173B63">G4 SCORE FUSION AND RE-RANKING</text>
</svg>